<?xml version="1.0" encoding="utf-8"?>
<!-- Generator: Adobe Illustrator 24.1.0, SVG Export Plug-In . SVG Version: 6.00 Build 0)  -->
<svg version="1.1" id="Layer_1" xmlns="http://www.w3.org/2000/svg" xmlns:xlink="http://www.w3.org/1999/xlink" x="0px" y="0px"
	 viewBox="0 0 72 72" style="enable-background:new 0 0 72 72;" xml:space="preserve">
<style type="text/css">
	.st0{fill:#1DA1F2;}
</style>
<g id="Twitter">
	<g>
		<g>
			<path class="st0" d="M72,13.6c-2.6,1.2-5.4,2-8.4,2.4c3-1.8,5.4-4.8,6.4-8.2c-2.8,1.6-6,3-9.4,3.6C58,8.7,54,6.9,49.8,6.9
				C41.6,6.9,35,13.4,35,21.6c0,1.2,0.2,2.2,0.4,3.4C23.2,24.5,12.2,18.6,5,9.7c-1.2,2.2-2,4.8-2,7.4c0,5.2,2.6,9.6,6.6,12.2
				c-2.4,0-4.6-0.8-6.6-1.8v0.2c0,7.2,5,13.2,11.8,14.4c-1.2,0.4-2.6,0.6-3.8,0.6c-1,0-1.8,0-2.8-0.2C10,48.3,15.6,52.7,22,52.7
				c-5,4-11.4,6.4-18.4,6.4c-1.2,0-2.4,0-3.6-0.2c6.6,4.2,14.2,6.6,22.6,6.6c27.2,0,42-22.4,42-42v-2C67.4,19.1,70,16.4,72,13.6z"/>
		</g>
	</g>
</g>
<g id="Guides">
</g>
</svg>
